<svg width="144" height="127" viewBox="0 0 144 127" fill="none" xmlns="http://www.w3.org/2000/svg">
<g clip-path="url(#clip0_287_29638)">
<path d="M31.2138 8.53352C47.7231 20.9265 65.4797 46.0549 72 59.5387C78.5203 46.0549 96.2769 20.9265 112.786 8.53352C124.698 -0.408585 144 -7.32757 144 14.689C144 19.0859 141.479 51.6261 140 56.9094C134.86 75.2758 116.13 79.9603 99.4682 77.125C128.591 82.081 136 98.4972 120 114.913C89.6129 146.091 76.3253 107.091 72.9205 97.0977C72.2964 95.2657 72.0043 94.4087 72 95.1374C71.9957 94.4087 71.7036 95.2657 71.0795 97.0977C67.6747 107.091 54.3871 146.091 24 114.913C8.00001 98.4972 15.4085 82.081 44.5317 77.125C27.8703 79.9603 9.14032 75.2758 4.00001 56.9094C2.52133 51.6261 0 19.0859 0 14.689C0 -7.32757 19.3017 -0.408585 31.2138 8.53352Z" fill="white"/>
</g>
<defs>
<clipPath id="clip0_287_29638">
<rect width="144" height="127" fill="white"/>
</clipPath>
</defs>
</svg>
